<?xml version="1.0" standalone="no"?>
<!DOCTYPE svg PUBLIC "-//W3C//DTD SVG 20010904//EN"
 "http://www.w3.org/TR/2001/REC-SVG-20010904/DTD/svg10.dtd">
<svg version="1.0" xmlns="http://www.w3.org/2000/svg"
 width="512.000000pt" height="512.000000pt" viewBox="0 0 512.000000 512.000000"
 preserveAspectRatio="xMidYMid meet">
<metadata>
Created by potrace 1.14, written by Peter Selinger 2001-2017
</metadata>
<g transform="translate(0.000000,512.000000) scale(0.100000,-0.100000)"
fill="#000000" stroke="none">
<path d="M3250 5101 c-310 -72 -552 -298 -639 -596 -38 -132 -42 -243 -16
-490 1 -16 6 -64 9 -105 4 -41 9 -95 11 -120 4 -46 11 -118 20 -225 3 -33 7
-82 10 -110 8 -89 14 -158 20 -245 3 -47 8 -96 10 -110 3 -14 7 -61 10 -105 3
-44 8 -93 10 -110 2 -16 7 -66 11 -110 8 -106 11 -116 32 -144 40 -55 65 -64
168 -67 53 -2 98 -5 101 -7 4 -5 6 -102 4 -209 -1 -47 -1 -47 -43 -60 -85 -24
-234 -115 -274 -166 -8 -11 -91 -14 -460 -14 -247 0 -454 1 -461 1 -6 1 -25
25 -41 54 -34 61 -130 154 -191 185 -37 20 -173 63 -190 60 -3 0 -38 0 -76 1
l-70 1 -1 233 c-1 255 -8 300 -66 408 -62 117 -198 219 -333 249 -63 14 -371
15 -406 2 -39 -15 -74 -52 -87 -91 -9 -26 -12 -422 -12 -1564 0 -1525 0 -1530
21 -1566 41 -73 52 -76 259 -78 202 -2 252 6 349 55 115 58 214 176 253 305
18 61 21 96 22 305 l1 235 80 2 c99 2 167 18 247 57 70 34 162 120 204 193
l29 50 455 0 456 0 59 -51 c158 -134 380 -189 580 -143 81 18 205 82 276 140
l66 54 129 0 129 0 1 -246 c0 -240 1 -246 24 -283 43 -71 56 -73 440 -72 325
1 340 2 366 22 15 11 37 33 48 48 20 27 21 39 21 399 0 205 -3 388 -7 407 -54
263 -221 468 -460 568 -125 52 -183 60 -465 60 l-233 0 -57 50 c-69 59 -147
104 -223 127 l-56 17 1 127 0 126 102 5 c111 5 141 19 175 76 20 34 24 58 33
174 3 47 8 101 10 120 2 19 7 69 10 110 3 41 8 91 10 110 4 32 8 80 20 230 5
61 13 151 20 220 3 25 7 81 11 125 3 44 7 87 9 95 2 8 7 62 10 120 3 58 8 112
10 120 2 8 7 53 10 100 3 47 8 101 10 120 2 19 6 71 10 115 4 44 8 91 10 105
2 14 7 70 11 125 3 55 8 108 10 118 6 32 -17 130 -41 177 -38 74 -88 124 -162
160 -62 31 -77 34 -168 36 -66 1 -125 -4 -175 -15z"/>
</g>
</svg>
